<svg width="16" height="16" viewBox="0 0 16 16" fill="none" xmlns="http://www.w3.org/2000/svg">
<path fill-rule="evenodd" clip-rule="evenodd" d="M7.99443 2.78079L8.00001 2.7779L8.00584 2.78092L10.9748 4.56229L12 5.17997V12.5334C12 12.9287 11.999 13.1451 11.9863 13.3005L11.9847 13.3181L11.9672 13.3196C11.8117 13.3323 11.5954 13.3334 11.2 13.3334H4.80001C4.40464 13.3334 4.1883 13.3323 4.03286 13.3196L4.01528 13.3181L4.01375 13.3005C4.00105 13.1451 4.00001 12.9287 4.00001 12.5334V5.17999L5.02146 4.56458L7.99443 2.78079ZM4.33447 3.42184L0.990366 5.42831C0.674646 5.61774 0.572269 6.02725 0.761701 6.34297C0.951133 6.65869 1.36064 6.76106 1.67636 6.57163L2.66668 5.97744V12.5334C2.66668 13.2801 2.66668 13.6535 2.812 13.9387C2.93983 14.1896 3.14381 14.3935 3.39469 14.5214C3.67991 14.6667 4.05327 14.6667 4.80001 14.6667H11.2C11.9467 14.6667 12.3201 14.6667 12.6053 14.5214C12.8562 14.3935 13.0602 14.1896 13.188 13.9387C13.3333 13.6535 13.3333 13.2801 13.3333 12.5334V5.97742L14.3237 6.57163C14.6394 6.76106 15.0489 6.65869 15.2384 6.34297C15.4278 6.02725 15.3254 5.61774 15.0097 5.42831L11.6617 3.41954L9.10095 1.87668C8.91477 1.76451 8.7719 1.67843 8.65081 1.6137C8.62255 1.59789 8.59386 1.58319 8.5648 1.5696C8.46403 1.52042 8.37669 1.48769 8.28695 1.46792C8.09792 1.42626 7.9021 1.42626 7.71307 1.46792C7.6231 1.48775 7.53554 1.52059 7.43444 1.56998C7.4059 1.58335 7.37773 1.59779 7.34997 1.6133C7.22872 1.67807 7.08564 1.76428 6.89908 1.87668L4.33447 3.42184Z" fill="#777E91"/>
<path fill-rule="evenodd" clip-rule="evenodd" d="M8.66667 13.3333V10.6667C8.66667 10.2985 8.36819 9.99999 8 9.99999C7.63181 9.99999 7.33333 10.2985 7.33333 10.6667V13.3333H8.66667ZM8 8.66666C6.89543 8.66666 6 9.56209 6 10.6667V14.6667H10V10.6667C10 9.56209 9.10457 8.66666 8 8.66666Z" fill="#777E91"/>
</svg>
